<svg width="190" height="29" viewBox="0 0 190 29" fill="none" xmlns="http://www.w3.org/2000/svg">
<path d="M39.3141 21.6096H40.2564V28.2056H39.3141V21.6096ZM51.9272 22.4294H49.6657V21.6096H55.1215V22.4294H52.86V28.2056H51.9272V22.4294ZM78.4002 28.2809C77.7406 28.2809 77.1438 28.1365 76.6098 27.8475C76.0822 27.5523 75.6676 27.1502 75.366 26.6414C75.0645 26.1263 74.9137 25.5483 74.9137 24.9076C74.9137 24.2668 75.0645 23.6921 75.366 23.1832C75.6676 22.6681 76.0853 22.2661 76.6193 21.9771C77.1532 21.6819 77.75 21.5342 78.4096 21.5342C78.9247 21.5342 79.3958 21.6222 79.823 21.7981C80.2502 21.9677 80.6145 22.2221 80.9161 22.5613L80.3036 23.155C79.8073 22.6336 79.1885 22.3729 78.4473 22.3729C77.9573 22.3729 77.5144 22.4828 77.1187 22.7027C76.7229 22.9225 76.412 23.2272 76.1858 23.6167C75.966 23.9999 75.856 24.4302 75.856 24.9076C75.856 25.385 75.966 25.8185 76.1858 26.2079C76.412 26.5911 76.7229 26.8927 77.1187 27.1125C77.5144 27.3324 77.9573 27.4423 78.4473 27.4423C79.1823 27.4423 79.801 27.1785 80.3036 26.6508L80.9161 27.2444C80.6145 27.5837 80.247 27.8412 79.8136 28.0171C79.3864 28.193 78.9153 28.2809 78.4002 28.2809ZM93.4861 28.2809C92.8202 28.2809 92.2203 28.1365 91.6864 27.8475C91.1524 27.5523 90.7315 27.1471 90.4237 26.632C90.1222 26.1168 89.9714 25.5421 89.9714 24.9076C89.9714 24.2731 90.1222 23.6983 90.4237 23.1832C90.7315 22.6681 91.1524 22.2661 91.6864 21.9771C92.2203 21.6819 92.8202 21.5342 93.4861 21.5342C94.1457 21.5342 94.7425 21.6819 95.2765 21.9771C95.8104 22.2661 96.2282 22.6681 96.5297 23.1832C96.8312 23.6921 96.982 24.2668 96.982 24.9076C96.982 25.5483 96.8312 26.1263 96.5297 26.6414C96.2282 27.1502 95.8104 27.5523 95.2765 27.8475C94.7425 28.1365 94.1457 28.2809 93.4861 28.2809ZM93.4861 27.4423C93.9698 27.4423 94.4033 27.3324 94.7865 27.1125C95.1759 26.8927 95.4806 26.5911 95.7005 26.2079C95.9266 25.8185 96.0397 25.385 96.0397 24.9076C96.0397 24.4302 95.9266 23.9999 95.7005 23.6167C95.4806 23.2272 95.1759 22.9225 94.7865 22.7027C94.4033 22.4828 93.9698 22.3729 93.4861 22.3729C93.0024 22.3729 92.5627 22.4828 92.1669 22.7027C91.7775 22.9225 91.4696 23.2272 91.2435 23.6167C91.0236 23.9999 90.9137 24.4302 90.9137 24.9076C90.9137 25.385 91.0236 25.8185 91.2435 26.2079C91.4696 26.5911 91.7775 26.8927 92.1669 27.1125C92.5627 27.3324 93.0024 27.4423 93.4861 27.4423ZM112.924 28.2056L112.914 23.3999L110.53 27.4046H110.097L107.713 23.4282V28.2056H106.808V21.6096H107.581L110.333 26.2456L113.046 21.6096H113.819L113.828 28.2056H112.924ZM126.767 21.6096C127.621 21.6096 128.293 21.8138 128.783 22.2221C129.273 22.6304 129.518 23.1926 129.518 23.9088C129.518 24.6249 129.273 25.1871 128.783 25.5955C128.293 26.0038 127.621 26.2079 126.767 26.2079H125.137V28.2056H124.194V21.6096H126.767ZM126.738 25.3882C127.335 25.3882 127.791 25.2625 128.105 25.0112C128.419 24.7537 128.576 24.3862 128.576 23.9088C128.576 23.4314 128.419 23.067 128.105 22.8157C127.791 22.5582 127.335 22.4294 126.738 22.4294H125.137V25.3882H126.738ZM143.16 26.5566H139.655L138.929 28.2056H137.959L140.946 21.6096H141.879L144.875 28.2056H143.886L143.16 26.5566ZM142.83 25.8028L141.407 22.5707L139.985 25.8028H142.83ZM159.918 21.6096V28.2056H159.145L155.187 23.2869V28.2056H154.245V21.6096H155.018L158.975 26.5283V21.6096H159.918ZM172.804 25.9253V28.2056H171.871V25.9064L169.251 21.6096H170.259L172.37 25.0866L174.49 21.6096H175.423L172.804 25.9253Z" fill="#211041"/>
<path d="M190 7.76653H186.656V11.0338H184.176V7.76653H180.852V5.4218H184.176V2.15454H186.656V5.4218H190V7.76653Z" fill="#211041"/>
<path fill-rule="evenodd" clip-rule="evenodd" d="M7.24605 7.26352V0.0429688H6.82051C3.05365 0.0429688 0 3.09662 0 6.86348V7.26352H7.24605ZM7.24605 8.56267L0 8.56267V21.4789C0 25.2457 3.05365 28.2994 6.82052 28.2994H20.3891L20.3891 21.3852H7.89563H7.24605V20.7356V8.56267ZM15.8888 8.56267L20.3891 18.3348L20.3892 8.56267H15.8888ZM17.7801 15.7752L19.7654 20.0861H9.01513L11.0571 15.7752H17.7801ZM17.1818 14.4761L14.5323 8.72289H14.3977L11.6725 14.4761H17.1818ZM13.0361 8.56267L8.5452 18.0434V8.56267H13.0361ZM21.6883 20.0861L21.6883 7.9131V7.26352H21.0387H8.5452V0.0429688H21.7607C25.5275 0.0429688 28.5812 3.09662 28.5812 6.86348V20.0861H21.6883ZM21.6883 21.3852L21.6883 28.2994H21.7607C25.5276 28.2994 28.5812 25.2457 28.5812 21.4789V21.3852H21.6883Z" fill="#211041"/>
<path fill-rule="evenodd" clip-rule="evenodd" d="M109.747 2.76756H113.907V13.684H117.02V2.76756H121.326V0.230629H111.268L109.747 2.76756ZM133.17 13.0306C134.285 13.62 135.528 13.9147 136.899 13.9147C138.065 13.9147 139.122 13.7097 140.07 13.2996C141.018 12.8896 141.812 12.2938 142.453 11.5123L140.454 9.66723C139.544 10.7307 138.417 11.2624 137.072 11.2624C136.239 11.2624 135.496 11.083 134.842 10.7243C134.189 10.3527 133.676 9.8402 133.305 9.18675C132.946 8.5333 132.766 7.79016 132.766 6.95733C132.766 6.1245 132.946 5.38136 133.305 4.72791C133.676 4.07446 134.189 3.56835 134.842 3.2096C135.496 2.83803 136.239 2.65224 137.072 2.65224C138.417 2.65224 139.544 3.17756 140.454 4.22821L142.453 2.38317C141.812 1.61441 141.018 1.02502 140.07 0.615013C139.134 0.205004 138.084 0 136.918 0C135.534 0 134.285 0.3011 133.17 0.9033C132.068 1.49269 131.197 2.31911 130.556 3.38257C129.928 4.43322 129.615 5.6248 129.615 6.95733C129.615 8.28986 129.928 9.48785 130.556 10.5513C131.197 11.602 132.068 12.4284 133.17 13.0306ZM42.9459 10.8012H49.1922L50.3837 13.684H53.651L47.6354 0.230629H44.5603L38.564 13.684H41.7543L42.9459 10.8012ZM46.0787 3.28647L48.212 8.4372H43.9453L46.0787 3.28647ZM67.9621 13.684V0.230629H64.887V8.39877L58.1987 0.230629H55.6234V13.684H58.6984V5.51589L65.4059 13.684H67.9621ZM80.5817 10.8012H74.3355L73.1439 13.684H69.9535L75.9499 0.230629H79.0249L85.0405 13.684H81.7733L80.5817 10.8012ZM79.6015 8.4372L77.4682 3.28647L75.3348 8.4372H79.6015ZM90.1264 0.230629H87.0129V13.684H96.8723V11.1471H90.1264V0.230629ZM104.257 8.91768V13.684H101.144V8.87924L95.9354 0.230629H99.2411L102.835 6.20778L106.429 0.230629H109.485L104.257 8.91768ZM123.577 0.230629H126.691V13.684H123.577V0.230629ZM150.997 13.9147C149.075 13.9147 147.576 13.3829 146.499 12.3195C145.436 11.256 144.904 9.7377 144.904 7.76453V0.230629H148.018V7.64922C148.018 10.058 149.017 11.2624 151.016 11.2624C151.99 11.2624 152.733 10.9741 153.245 10.3976C153.758 9.80817 154.014 8.89206 154.014 7.64922V0.230629H157.089V7.76453C157.089 9.7377 156.551 11.256 155.475 12.3195C154.411 13.3829 152.919 13.9147 150.997 13.9147ZM172.966 5.61199L172.985 13.684H175.906L175.868 0.230629H173.312L168.353 8.59096L163.318 0.230629H160.742V13.684H163.664V5.78496L167.604 12.2618H169.007L172.966 5.61199Z" fill="#211041"/>
</svg>
